# xmcd
#
# Track frame offsets:
#	182
#	18197
#	32312
#	44035
#	58897
#	75055
#	86780
#	101115
#	114802
#	125655
#	137680
#	156067
#	173520
#	187310
#	207005
#	219992
#	231767
#	242877
#	259095
#	271065
#	290337
#	308355
#
# Disc length: 4332 seconds
# Revision: 3
# Processed by: cddbd v1.5.2PL0 Copyright (c) Steve Scherf et al.
# Submitted via: dBpowerAMP V12.0
#
DISCID=2310ea16
DTITLE=Hank Williams, Jr. - The Bocephus Box, Disc 1
DYEAR=1992
DGENRE=Country
TTITLE0=Family Tradition
TTITLE1=To Love Somebody
TTITLE2=Old Flame, New Fire
TTITLE3=Only Daddy That'll Walk the Line
TTITLE4=I've Got Rights
TTITLE5=I Just Ain't Been Able
TTITLE6=Whiskey Bent and Hell Bound
TTITLE7=Outlaw Women
TTITLE8=(I Don't Have) Anymore Love Songs
TTITLE9=O.D.'d in Denver
TTITLE10=Come and Go Blues
TTITLE11=The Conversation
TTITLE12=Old Habits
TTITLE13=Kaw-Liga
TTITLE14=If You Don't Like Hank Williams
TTITLE15=Dixie on My Mind
TTITLE16=Texas Women
TTITLE17=Ramblin' Man
TTITLE18=Waitin' on the Tables to Turn
TTITLE19=A Country Boy Can Survive
TTITLE20=All My Rowdy Friends (Have Settled Down)
TTITLE21=I've Been Down
EXTD=
EXTT0=
EXTT1=
EXTT2=
EXTT3=
EXTT4=
EXTT5=
EXTT6=
EXTT7=
EXTT8=
EXTT9=
EXTT10=
EXTT11=
EXTT12=
EXTT13=
EXTT14=
EXTT15=
EXTT16=
EXTT17=
EXTT18=
EXTT19=
EXTT20=
EXTT21=
PLAYORDER=
